<svg xmlns="http://www.w3.org/2000/svg" height="100" width="100"><path fill="#fff" d="M5 5h90v90H5z"/><path style="text-align:center" d="M85.815 20.478v69.609h-6.46v-6.768H20.601v6.768h-6.592v-69.61zm-65.214 5.844V77.3h58.754V26.322H60.811v28.653q0 2.109.79 2.548.967.528 3.78.528 4.746 0 5.405-1.89.615-1.626.747-6.592l.088-1.274 5.757 2.153q-.264 8.394-1.89 10.81-1.801 2.638-9.975 2.638-7.032 0-9.01-1.45-1.977-1.319-1.977-4.967V26.322H42.441v9.185q0 15.513-5.317 22.895-3.296 4.659-10.942 9.36l-4.22-5.053q9.185-4.79 12.042-12.437 2.065-5.36 2.065-14.062v-9.888z" aria-label="四"    /></svg>