<svg xmlns="http://www.w3.org/2000/svg" height="100" width="100"><path fill="#fff" d="M5 5h90v90H5z"/><path style="text-align:center" d="M60.151 37.924H43.364q-.44 18.193-5.405 29.75-6.328 14.766-22.588 23.6l-4.878-5.933q16.216-8.086 21.621-22.149 3.955-10.634 4.219-24.477H14.009v-6.372h22.324V13.534h7.12V31.64H67.27v46.406q0 2.593 1.977 3.12 1.626.44 4.482.44 6.504 0 7.295-2.77.967-2.856 1.099-13.842l6.987 2.153q-.659 14.766-2.68 17.71-2.55 3.516-14.063 3.516-7.734 0-10.24-1.714-1.977-1.45-1.977-5.361z" aria-label="九"    /></svg>