<svg xmlns="http://www.w3.org/2000/svg" height="100" width="100"><path fill="#fff" d="M5 5h90v90H5z"/><path style="text-align:center" d="M35.967 14.541v9.61q10.107 4.599 22.148 12.538l-3.603 3.78q-8.203-6.211-18.545-11.895V59.19h-4.688V14.541H9.805v-4.19h50.332v4.19z" aria-label="下"    /><path style="text-align:center" d="M77.305 52.592q3.515-4.219 6.357-8.262l4.19 2.168q-6.036 8.057-12.95 14.795h16.729v3.955H70.596q-5.332 4.57-10.928 8.291v4.102q12.363-2.608 21.299-6.504l3.662 3.72q-10.43 3.838-24.961 6.563v4.775q0 2.373 1.26 2.842 1.377.586 9.521.586 9.346 0 11.426-.527 1.846-.469 2.373-3.135.586-2.783.674-6.65l4.394 1.552q-.468 8.614-2.343 10.664-1.29 1.348-4.57 1.817-3.546.469-12.012.469-10.225 0-12.657-.909-2.46-.996-2.46-5.068V76.322q-.118.059-.47.293-5.331 3.34-14.882 7.793l-2.52-3.838q15.44-6.24 26.25-14.824h-25.37V61.85h22.03v-8.467H45.605v-3.78h15.088v-8.29h4.248v8.29h12.364zm-.674.79H64.56v8.468h3.75q3.896-3.399 8.32-8.467z" aria-label="老"    /></svg>