<svg xmlns="http://www.w3.org/2000/svg" height="100" width="100"><path fill="#fff" d="M5 5h90v90H5z"/><path style="text-align:center" d="M18.228 20.653H68.5l3.428 4.043q-14.283 13.14-25.84 24.39l-1.89 1.89q-19.424 18.94-19.424 23.247 0 3.647 4.746 4.35 5.01.791 21.885.791 18.59 0 22.764-1.274 4.219-1.23 4.878-6.548.527-3.691.79-10.283l6.856 2.241q-.263 10.107-1.626 14.019-1.89 5.932-8.789 7.119-5.888 1.186-27.905 1.186-19.38 0-24.214-1.714-7.031-2.285-7.031-8.657 0-3.955 2.988-7.998 9.009-12.436 40.737-40.781H18.228z" aria-label="乙"    /></svg>