<svg xmlns="http://www.w3.org/2000/svg" height="100" width="100"><path fill="#fff" d="M5 5h90v90H5z"/><path style="text-align:center" d="M68.457 28.388q5.273-6.328 9.536-12.393l6.284 3.252Q75.225 31.332 64.854 41.44h25.092v5.933H58.394q-7.998 6.856-16.392 12.437v6.152q18.545-3.911 31.948-9.756l5.493 5.581Q63.8 67.543 42.002 71.63v7.163q0 3.56 1.89 4.263 2.065.879 14.282.879 14.018 0 17.139-.791 2.768-.704 3.56-4.703.878-4.174 1.01-9.975l6.592 2.329q-.704 12.92-3.516 15.996-1.934 2.021-6.855 2.725-5.318.703-18.018.703-15.337 0-18.984-1.363-3.692-1.494-3.692-7.602v-17.27q-.176.087-.703.439-7.998 5.01-22.324 11.69l-3.78-5.758q23.16-9.36 39.376-22.236H9.922v-5.845h33.047v-12.7h-22.06v-5.669H43.54V11.47h6.372v12.436h18.545zm-1.01 1.186H49.34v12.7h5.625q5.845-5.097 12.48-12.7z" aria-label="老"    /></svg>