<svg xmlns="http://www.w3.org/2000/svg" width="100" height="100"><path d="M50.176 9.228q10.195 0 19.6 5.053 8.393 4.527 14.194 12.217 8.57 11.558 8.57 25.4 0 10.284-5.055 19.688-4.658 8.613-12.216 14.194-11.558 8.57-25.357 8.57-10.723 0-20.083-5.23-8.437-4.658-14.15-12.392-8.262-11.294-8.262-25.05 0-20.214 16.48-33.178Q35.41 9.228 50.175 9.228zm-.396 4.13q-8.92 0-17.182 4.307-7.69 3.911-12.964 10.81-8.086 10.416-8.086 23.423 0 9.01 4.306 17.27 3.912 7.691 10.811 12.965 10.415 8.086 23.423 8.086 9.009 0 17.27-4.307 7.69-3.911 12.964-10.81 8.086-10.415 8.086-23.335 0-18.062-14.502-29.84-10.722-8.569-24.126-8.569z"/></svg>