<svg xmlns="http://www.w3.org/2000/svg" height="100" width="100"><path fill="#fff" d="M5 5h90v90H5z"/><path style="text-align:center" d="M35.967 14.541v9.61q10.107 4.599 22.148 12.538l-3.603 3.78q-8.203-6.211-18.545-11.895V59.19h-4.688V14.541H9.805v-4.19h50.332v4.19z" aria-label="下"    /><path style="text-align:center" d="M67.842 67.416q5.273 15.85 22.969 22.441l-3.252 4.307q-18.78-9.17-24.288-26.748h-12.04q-.82 17.52-9.61 28.008l-3.428-3.574q8.584-9.58 8.584-27.745v-18.69h37.735V71.02h-4.453v-3.604zm12.217-18.047h-28.77v14.15h28.77z" aria-label="尺"    /></svg>